<?xml version="1.0" encoding="UTF-8"?>
<svg xmlns="http://www.w3.org/2000/svg" xmlns:xlink="http://www.w3.org/1999/xlink" width="32px" height="32px" viewBox="0 0 32 32" version="1.1">
<g id="surface1">
<path style=" stroke:none;fill-rule:nonzero;fill:rgb(56.078434%,57.647061%,98.431373%);fill-opacity:1;" d="M 26.210938 28.617188 L 7.804688 28.617188 C 5.828125 28.617188 4.222656 27.011719 4.222656 25.03125 L 4.222656 12.503906 C 4.222656 10.523438 5.828125 8.921875 7.804688 8.921875 L 26.210938 8.921875 C 28.191406 8.921875 29.796875 10.523438 29.796875 12.503906 L 29.796875 25.03125 C 29.796875 27.011719 28.191406 28.617188 26.210938 28.617188 Z M 26.210938 28.617188 "/>
<path style=" stroke:none;fill-rule:nonzero;fill:rgb(47.058824%,48.627451%,96.078432%);fill-opacity:1;" d="M 26.210938 8.917969 L 25.691406 8.917969 C 26.453125 9.3125 27.8125 10.261719 27.8125 12.003906 L 27.8125 24.425781 C 27.8125 25.359375 27.726562 28.617188 24.042969 28.617188 L 25.6875 28.617188 C 26.230469 28.601562 26.78125 28.558594 27.292969 28.449219 C 28.746094 27.992188 29.796875 26.632812 29.796875 25.03125 L 29.796875 12.503906 C 29.796875 10.523438 28.191406 8.917969 26.210938 8.917969 Z M 26.210938 8.917969 "/>
<path style=" stroke:none;fill-rule:nonzero;fill:rgb(20%,20%,20%);fill-opacity:1;" d="M 2.234375 16.296875 C 1.96875 16.296875 1.753906 16.082031 1.753906 15.816406 L 1.753906 15.203125 C 1.753906 14.9375 1.96875 14.722656 2.234375 14.722656 C 2.5 14.722656 2.714844 14.9375 2.714844 15.203125 L 2.714844 15.816406 C 2.714844 16.082031 2.5 16.296875 2.234375 16.296875 Z M 2.234375 16.296875 "/>
<path style=" stroke:none;fill-rule:nonzero;fill:rgb(92.54902%,82.745099%,0%);fill-opacity:1;" d="M 26.527344 26.640625 L 7.390625 26.640625 C 6.679688 26.640625 6.105469 26.066406 6.105469 25.359375 L 6.105469 12.703125 C 6.105469 11.992188 6.679688 11.417969 7.390625 11.417969 L 26.527344 11.417969 C 27.234375 11.417969 27.808594 11.992188 27.808594 12.703125 L 27.808594 25.359375 C 27.8125 26.066406 27.234375 26.640625 26.527344 26.640625 Z M 26.527344 26.640625 "/>
<path style=" stroke:none;fill-rule:nonzero;fill:rgb(100%,38.82353%,22.352941%);fill-opacity:1;" d="M 8.195312 18.140625 C 8.195312 18.898438 8.808594 19.507812 9.5625 19.507812 C 10.316406 19.507812 10.929688 18.898438 10.929688 18.140625 C 10.929688 17.386719 10.316406 16.777344 9.5625 16.777344 C 8.808594 16.777344 8.195312 17.386719 8.195312 18.140625 Z M 8.195312 18.140625 "/>
<path style=" stroke:none;fill-rule:nonzero;fill:rgb(100%,38.82353%,22.352941%);fill-opacity:1;" d="M 14.648438 18.140625 C 14.648438 18.898438 15.261719 19.507812 16.015625 19.507812 C 16.769531 19.507812 17.382812 18.898438 17.382812 18.140625 C 17.382812 17.386719 16.769531 16.777344 16.015625 16.777344 C 15.261719 16.777344 14.648438 17.386719 14.648438 18.140625 Z M 14.648438 18.140625 "/>
<path style=" stroke:none;fill-rule:nonzero;fill:rgb(100%,38.82353%,22.352941%);fill-opacity:1;" d="M 20.9375 18.140625 C 20.9375 18.898438 21.550781 19.507812 22.304688 19.507812 C 23.058594 19.507812 23.671875 18.898438 23.671875 18.140625 C 23.671875 17.386719 23.058594 16.777344 22.304688 16.777344 C 21.550781 16.777344 20.9375 17.386719 20.9375 18.140625 Z M 20.9375 18.140625 "/>
<path style=" stroke:none;fill-rule:nonzero;fill:rgb(90.980393%,63.529414%,0%);fill-opacity:1;" d="M 26.527344 11.417969 L 25.796875 11.417969 L 25.796875 24.210938 C 25.796875 25.191406 25.304688 26.507812 23.527344 26.507812 C 25.457031 26.507812 27.808594 26.785156 27.808594 24.425781 L 27.808594 12.699219 C 27.8125 11.992188 27.234375 11.417969 26.527344 11.417969 Z M 26.527344 11.417969 "/>
<path style=" stroke:none;fill-rule:nonzero;fill:rgb(20%,20%,20%);fill-opacity:1;" d="M 25.925781 27.121094 L 6.105469 27.121094 C 4.800781 27.121094 3.742188 26.0625 3.742188 24.757812 L 3.742188 22.527344 C 3.742188 22.261719 3.957031 22.046875 4.222656 22.046875 C 4.488281 22.046875 4.699219 22.261719 4.699219 22.527344 L 4.699219 24.757812 C 4.699219 25.53125 5.332031 26.164062 6.105469 26.164062 L 25.925781 26.164062 C 26.699219 26.164062 27.332031 25.53125 27.332031 24.757812 L 27.332031 11.761719 C 27.332031 10.984375 26.699219 10.355469 25.925781 10.355469 L 6.105469 10.355469 C 5.332031 10.355469 4.699219 10.984375 4.699219 11.761719 L 4.699219 19.902344 C 4.699219 20.167969 4.488281 20.378906 4.222656 20.378906 C 3.957031 20.378906 3.742188 20.167969 3.742188 19.902344 L 3.742188 11.761719 C 3.742188 10.457031 4.800781 9.394531 6.105469 9.394531 L 25.925781 9.394531 C 27.230469 9.394531 28.292969 10.457031 28.292969 11.761719 L 28.292969 24.757812 C 28.292969 26.0625 27.230469 27.121094 25.925781 27.121094 Z M 25.925781 27.121094 "/>
<path style=" stroke:none;fill-rule:nonzero;fill:rgb(20%,20%,20%);fill-opacity:1;" d="M 26.210938 7.179688 L 24.195312 7.179688 L 17.796875 2.742188 C 16.742188 1.960938 15.292969 1.988281 14.269531 2.804688 L 8.414062 7.179688 L 5.820312 7.179688 C 3.578125 7.179688 1.753906 9.003906 1.753906 11.242188 L 1.753906 12.585938 C 1.753906 12.851562 1.96875 13.066406 2.234375 13.066406 C 2.5 13.066406 2.714844 12.851562 2.714844 12.585938 L 2.714844 11.242188 C 2.714844 9.53125 4.109375 8.140625 5.820312 8.140625 L 26.210938 8.140625 C 27.925781 8.140625 29.316406 9.53125 29.316406 11.242188 L 29.316406 25.03125 C 29.316406 26.742188 27.921875 28.132812 26.210938 28.132812 L 5.820312 28.132812 C 4.105469 28.132812 2.714844 26.742188 2.714844 25.03125 L 2.714844 17.777344 C 2.714844 17.511719 2.5 17.296875 2.234375 17.296875 C 1.96875 17.296875 1.753906 17.511719 1.753906 17.777344 L 1.753906 25.03125 C 1.753906 27.273438 3.578125 29.09375 5.820312 29.09375 L 26.210938 29.09375 C 28.453125 29.09375 30.277344 27.269531 30.277344 25.03125 L 30.277344 11.246094 C 30.277344 9.003906 28.453125 7.179688 26.210938 7.179688 Z M 14.847656 3.566406 C 14.855469 3.566406 14.859375 3.5625 14.863281 3.558594 C 15.546875 3.007812 16.519531 2.992188 17.238281 3.523438 L 22.507812 7.179688 L 10.019531 7.179688 Z M 14.847656 3.566406 "/>
<path style=" stroke:none;fill-rule:nonzero;fill:rgb(20%,20%,20%);fill-opacity:1;" d="M 9.5625 19.992188 C 8.542969 19.992188 7.714844 19.160156 7.714844 18.144531 C 7.714844 17.125 8.542969 16.296875 9.5625 16.296875 C 10.578125 16.296875 11.40625 17.125 11.40625 18.144531 C 11.40625 19.160156 10.578125 19.992188 9.5625 19.992188 Z M 9.5625 17.257812 C 9.070312 17.257812 8.675781 17.65625 8.675781 18.140625 C 8.675781 18.628906 9.074219 19.027344 9.5625 19.027344 C 10.050781 19.027344 10.449219 18.628906 10.449219 18.140625 C 10.449219 17.65625 10.050781 17.257812 9.5625 17.257812 Z M 16.015625 19.992188 C 15 19.992188 14.167969 19.160156 14.167969 18.144531 C 14.167969 17.125 15 16.296875 16.015625 16.296875 C 17.035156 16.296875 17.863281 17.125 17.863281 18.144531 C 17.863281 19.160156 17.035156 19.992188 16.015625 19.992188 Z M 16.015625 17.257812 C 15.527344 17.257812 15.128906 17.65625 15.128906 18.140625 C 15.128906 18.628906 15.527344 19.027344 16.015625 19.027344 C 16.503906 19.027344 16.902344 18.628906 16.902344 18.140625 C 16.902344 17.65625 16.503906 17.257812 16.015625 17.257812 Z M 22.304688 19.992188 C 21.285156 19.992188 20.457031 19.160156 20.457031 18.144531 C 20.457031 17.125 21.285156 16.296875 22.304688 16.296875 C 23.320312 16.296875 24.152344 17.125 24.152344 18.144531 C 24.152344 19.160156 23.324219 19.992188 22.304688 19.992188 Z M 22.304688 17.257812 C 21.8125 17.257812 21.417969 17.65625 21.417969 18.140625 C 21.417969 18.628906 21.816406 19.027344 22.304688 19.027344 C 22.792969 19.027344 23.191406 18.628906 23.191406 18.140625 C 23.191406 17.65625 22.792969 17.257812 22.304688 17.257812 Z M 22.304688 17.257812 "/>
<path style=" stroke:none;fill-rule:nonzero;fill:rgb(100%,100%,100%);fill-opacity:1;" d="M 7.65625 15.910156 C 7.4375 15.910156 7.257812 15.730469 7.257812 15.511719 L 7.257812 14.203125 C 7.257812 13.566406 7.777344 13.046875 8.414062 13.046875 L 10.785156 13.046875 C 11.003906 13.046875 11.183594 13.226562 11.183594 13.445312 C 11.183594 13.667969 11.003906 13.847656 10.785156 13.847656 L 8.414062 13.847656 C 8.21875 13.847656 8.058594 14.007812 8.058594 14.203125 L 8.058594 15.511719 C 8.058594 15.730469 7.878906 15.910156 7.65625 15.910156 Z M 12.628906 13.84375 L 12.132812 13.84375 C 11.910156 13.84375 11.730469 13.664062 11.730469 13.445312 C 11.730469 13.222656 11.910156 13.042969 12.132812 13.042969 L 12.628906 13.042969 C 12.851562 13.042969 13.027344 13.222656 13.027344 13.445312 C 13.027344 13.664062 12.851562 13.84375 12.628906 13.84375 Z M 12.628906 13.84375 "/>
</g>
</svg>
